<?xml version="1.0" encoding="UTF-8"?><svg id="Layer_2" xmlns="http://www.w3.org/2000/svg" viewBox="0 0 674.04 593.59"><defs><style>.cls-1{fill:#f7edda;}</style></defs><g id="Layer_1-2"><rect class="cls-1" x="229.72" y="377.91" width="127.6" height="31.05"/><rect class="cls-1" x="198.66" y="300.63" width="31.06" height="77.29"/><rect class="cls-1" x="379.87" y="39.21" width="39.22" height="78.44"/><rect class="cls-1" x="419.1" y="0" width="39.21" height="39.21"/><rect class="cls-1" x="301.44" y="39.21" width="39.22" height="78.44"/><rect class="cls-1" x="340.66" width="39.21" height="39.21"/><polygon class="cls-1" points="634.35 355.39 634.35 315.7 674.04 315.7 674.04 236.31 635 236.31 635 216.47 634.35 216.47 634.35 196.62 594.66 196.62 594.66 156.87 379.87 156.87 379.87 593.59 594.66 593.59 594.66 553.9 634.35 553.9 634.35 514.21 674.04 514.21 674.04 434.83 634.35 434.83 634.35 395.14 594.66 395.14 594.66 355.39 634.35 355.39"/><rect class="cls-1" x="277.91" y="514.19" width="79.4" height="39.7"/><rect class="cls-1" x="158.81" y="553.89" width="119.1" height="39.71"/><rect class="cls-1" x="79.4" y="514.19" width="79.41" height="39.7"/><polygon class="cls-1" points="357.31 196.57 357.31 275.65 277.24 275.65 277.24 236.61 158.81 235.95 158.81 275.65 79.4 275.65 79.4 333.15 39.7 333.15 39.7 434.78 79.4 434.78 79.4 514.19 39.7 514.19 39.7 474.15 0 474.15 0 315.69 39.7 315.69 39.7 236.27 79.4 236.27 79.4 196.58 158.81 196.58 158.81 156.88 277.24 157.54 277.24 196.57 357.31 196.57"/></g></svg>